<?xml version="1.0" encoding="utf-8"?>
<!-- Generator: Adobe Illustrator 23.0.3, SVG Export Plug-In . SVG Version: 6.00 Build 0)  -->
<svg version="1.1" id="MM_x2B_M" xmlns="http://www.w3.org/2000/svg" xmlns:xlink="http://www.w3.org/1999/xlink" x="0px" y="0px"
	 viewBox="0 0 238 43" style="enable-background:new 0 0 238 43;" xml:space="preserve">
<g>
	<g>
		<path class="st0" style="fill:#014059;" d="M190.5,20.4v-3.5h-0.1l-1,3.5h-0.8l-1-3.5h-0.1v3.5h-0.9v-4.7h1.6l0.8,3h0.1l0.9-3h1.5v4.7H190.5z"/>
		<path class="st0" style="fill:#014059;" d="M196.7,18.3H195v1.2h2.4v0.8H194v-4.7h3.3v0.8H195v1.1h1.7V18.3z"/>
		<path class="st0" style="fill:#014059;" d="M201.4,15.7c1.6,0,2.4,0.9,2.4,2.3c0,1.5-0.8,2.3-2.4,2.3h-1.8v-4.7H201.4z M201.4,16.5h-0.7v3.1h0.7
			c0.8,0,1.3-0.3,1.3-1.5S202.1,16.5,201.4,16.5z"/>
		<path class="st0" style="fill:#014059;" d="M207.1,20.4H206v-4.7h1.1V20.4z"/>
		<path class="st0" style="fill:#014059;" d="M213.5,17.1l-0.9,0.4c-0.1-0.7-0.4-1.1-1-1.1c-0.7,0-1.1,0.6-1.1,1.6c0,1,0.4,1.6,1.2,1.6
			c0.8,0,1.1-0.6,1.1-1.2l1,0.4c-0.2,0.8-0.8,1.7-2.1,1.7c-1.5,0-2.3-1.1-2.3-2.4c0-1.3,0.8-2.4,2.3-2.4
			C212.7,15.6,213.3,16.2,213.5,17.1z"/>
		<path class="st0" style="fill:#014059;" d="M219.8,20.4h-1.2l-0.4-1.1h-1.5l-0.4,1.1h-1l1.7-4.7h1.1L219.8,20.4z M217,18.5h1.1l-0.5-1.6h-0.1L217,18.5z"
			/>
		<path class="st0" style="fill:#014059;" d="M223,19.5h2.3v0.8h-3.4v-4.7h1.1V19.5z"/>
		<path class="st0" style="fill:#014059;" d="M190.5,31.6v-3.5h-0.1l-1,3.5h-0.8l-1-3.5h-0.1v3.5h-0.9v-4.7h1.6l0.8,3h0.1l0.9-3h1.5v4.7H190.5z"/>
		<path class="st0" style="fill:#014059;" d="M198,31.6h-1.2l-0.4-1.1h-1.5l-0.4,1.1h-1l1.7-4.7h1.1L198,31.6z M195.2,29.8h1.1l-0.5-1.6h-0.1L195.2,29.8z"
			/>
		<path class="st0" style="fill:#014059;" d="M202.9,31.6c-0.1,0-0.2-0.3-0.2-0.4c-0.1-0.2-0.1-0.4-0.2-0.8c0-0.5-0.2-0.7-0.7-0.7h-0.7v1.9h-1.1v-4.7h2.1
			c1.2,0,1.7,0.5,1.7,1.3c0,0.7-0.5,1.1-1.1,1.2v0c0.5,0.1,0.8,0.3,0.9,1.1c0.1,0.5,0.3,0.9,0.4,1v0H202.9z M202,27.7h-0.8V29h0.8
			c0.6,0,0.7-0.2,0.7-0.7C202.7,27.9,202.5,27.7,202,27.7z"/>
		<path class="st0" style="fill:#014059;" d="M207.7,29.6l-0.4,0.5v1.5h-1.1v-4.7h1.1v2h0.1l1.7-2h1l-1.7,1.9l1.9,2.7h-1.2L207.7,29.6z"/>
		<path class="st0" style="fill:#014059;" d="M215.1,29.5h-1.7v1.2h2.4v0.8h-3.4v-4.7h3.3v0.8h-2.2v1.1h1.7V29.5z"/>
		<path class="st0" style="fill:#014059;" d="M220,31.6h-1.1v-3.9h-1.4v-0.8h4v0.8H220V31.6z"/>
		<path class="st0" style="fill:#014059;" d="M224.6,31.6h-1.1v-4.7h1.1V31.6z"/>
		<path class="st0" style="fill:#014059;" d="M229.9,31.6l-1.9-3.4H228v3.4h-0.9v-4.7h1.3l1.7,3h0.1v-3h0.9v4.7H229.9z"/>
		<path class="st0" style="fill:#014059;" d="M234.4,29.2c0,1,0.4,1.6,1.2,1.6c0.6,0,1-0.3,1-0.8v-0.2h-0.9v-0.7h2v2.4h-0.8l0-0.6h-0.1
			c-0.2,0.4-0.6,0.7-1.4,0.7c-1.3,0-2.1-1.1-2.1-2.4c0-1.3,0.8-2.4,2.3-2.4c1.2,0,1.9,0.7,2,1.5l-1,0.4c-0.1-0.7-0.4-1.1-1-1.1
			C234.8,27.6,234.4,28.2,234.4,29.2z"/>
		<path class="st0" style="fill:#014059;" d="M190.7,42.8h-1.2l-0.4-1.1h-1.5l-0.4,1.1h-1l1.7-4.7h1.1L190.7,42.8z M187.9,41h1.1l-0.5-1.6h-0.1L187.9,41z"
			/>
		<path class="st0" style="fill:#014059;" d="M195.7,42.8l-1.9-3.4h-0.1v3.4h-0.9v-4.7h1.3l1.7,3h0.1v-3h0.9v4.7H195.7z"/>
		<path class="st0" style="fill:#014059;" d="M201,38.1c1.6,0,2.4,0.9,2.4,2.3c0,1.5-0.8,2.3-2.4,2.3h-1.8v-4.7H201z M201,38.9h-0.7V42h0.7
			c0.8,0,1.3-0.3,1.3-1.5S201.8,38.9,201,38.9z"/>
		<path class="st0" style="fill:#014059;" d="M212.2,42.8v-3.5h-0.1l-1,3.5h-0.8l-1-3.5h-0.1v3.5h-0.9v-4.7h1.6l0.8,3h0.1l0.9-3h1.5v4.7H212.2z"/>
		<path class="st0" style="fill:#014059;" d="M218.5,40.8h-1.7V42h2.4v0.8h-3.4v-4.7h3.3v0.8h-2.2V40h1.7V40.8z"/>
		<path class="st0" style="fill:#014059;" d="M223.1,38.1c1.6,0,2.4,0.9,2.4,2.3c0,1.5-0.8,2.3-2.4,2.3h-1.8v-4.7H223.1z M223.1,38.9h-0.7V42h0.7
			c0.8,0,1.3-0.3,1.3-1.5S223.9,38.9,223.1,38.9z"/>
		<path class="st0" style="fill:#014059;" d="M228.8,42.8h-1.1v-4.7h1.1V42.8z"/>
		<path class="st0" style="fill:#014059;" d="M235.3,42.8h-1.2l-0.4-1.1h-1.5l-0.4,1.1h-1l1.7-4.7h1.1L235.3,42.8z M232.5,41h1.1l-0.5-1.6H233L232.5,41z"
			/>
	</g>
	<g>
		<polygon class="st0" style="fill:#014059;" points="34.6,43 34.6,11.9 34,11.9 25.7,43 17.5,43 9.2,11.9 8.6,11.9 8.6,43 0.3,43 0.3,0.1 15.6,0.1 
			22.7,26.4 23.2,26.4 30.5,0.1 44.8,0.1 44.8,43 		"/>
		<polygon class="st0" style="fill:#014059;" points="83.6,42.9 83.6,11.7 83,11.7 74.6,42.9 66.5,42.9 58.2,11.7 57.5,11.7 57.5,42.9 49.2,42.9 49.2,0 
			64.6,0 71.7,26.3 72.2,26.3 79.4,0 93.8,0 93.8,42.9 		"/>
		<polygon class="st1" style="fill:#CF1789;" points="111,6.6 111,20.5 97.8,20.5 97.8,22.5 111,22.5 111,36.3 113.3,36.3 113.3,22.5 126.3,22.5 
			126.3,20.5 113.3,20.5 113.3,6.6 		"/>
		<polygon class="st0" style="fill:#014059;" points="161.1,0 153.9,26.3 153.4,26.3 146.3,0 131,0 131,42.9 139.3,42.9 139.3,11.7 139.9,11.7 148.2,42.9 
			156.3,42.9 164.7,11.7 165.3,11.7 165.3,42.9 175.5,42.9 175.5,0 		"/>
	</g>
</g>
</svg>
