<?xml version="1.0" encoding="UTF-8"?>
<svg width="409px" height="85px" viewBox="0 0 409 85" version="1.1" xmlns="http://www.w3.org/2000/svg" xmlns:xlink="http://www.w3.org/1999/xlink">
    <title>Logo</title>
    <g id="Logo" stroke="none" stroke-width="1" fill="none" fill-rule="evenodd">
        <path d="M252.884789,46.2272653 L272.332677,46.2272653 C272.332677,35.9391956 269.955884,29.2239352 263.581058,29.2239352 C256.99016,29.2239352 253.533005,36.2647586 252.884789,46.2272653 M287.567856,48.1778487 L287.567856,50.6677767 L252.668717,50.6677767 C252.343911,64.8556158 259.799098,73.3020889 269.955884,73.3020889 C277.194998,73.3020889 282.166052,70.4865979 286.164084,64.9632053 L288,66.0474838 C285.191062,77.4184346 277.086265,85 264.013202,85 C248.237146,85 237,73.8456254 237,56.4077455 C237,37.4552293 249.534973,25 264.768758,25 C279.787864,25 287.567856,34.7473277 287.567856,48.1778487" id="Fill-1" fill="#0D101A"></path>
        <path d="M131.797354,71.1795225 L116.27613,49.5979489 C124.19763,47.3539174 132.97536,41.3716712 132.97536,30.0467553 C132.97536,17.2262778 122.163396,9 104.609318,9 L68,9 L68,13.0593814 C75.2793284,13.913988 76.1355575,14.6610796 76.1355575,20.4310525 L76.1355575,72.5689475 C76.1355575,78.337542 75.2793284,79.086012 68,79.9406186 L68,84 L102.575084,84 L102.575084,79.9406186 C95.1894171,79.086012 94.333188,78.337542 94.333188,72.5689475 L94.333188,13.806473 L98.4002762,13.806473 C109.104521,13.806473 114.671391,20.3235375 114.671391,30.1528919 C114.671391,41.0518829 109.104521,47.4614324 98.6143335,47.4614324 L96.0884576,47.4614324 L99.2565053,52.2692838 L112.743495,73.1037658 C115.955735,78.2314054 118.63076,81.7559685 121.735281,84 L144,84 L144,79.9406186 C138.754906,79.726967 136.400276,77.6965871 131.797354,71.1795225" id="Fill-10" fill="#DA0014"></path>
        <path d="M308.884789,46.2272653 L328.332677,46.2272653 C328.332677,35.9391956 325.955884,29.2239352 319.581058,29.2239352 C312.99016,29.2239352 309.533005,36.2647586 308.884789,46.2272653 M343.56925,48.1778487 L343.56925,50.6677767 L308.668717,50.6677767 C308.343911,64.8556158 315.799098,73.3020889 325.955884,73.3020889 C333.194998,73.3020889 338.166052,70.4865979 342.164084,64.9632053 L344,66.0474838 C341.191062,77.4184346 333.086265,85 320.013202,85 C304.23854,85 293,73.8456254 293,56.4077455 C293,37.4552293 305.534973,25 320.768758,25 C335.789258,25 343.56925,34.7473277 343.56925,48.1778487" id="Fill-4" fill="#0D101A"></path>
        <path d="M386.60745,38.6341145 C388.964343,36.499541 389.927835,35.2187968 389.927835,33.8306354 C389.927835,31.8034791 388.213731,31.3751872 383.285684,30.8422324 L383.285684,27 L406.749548,27 L406.749548,30.8422324 C403.000638,31.4826045 400.642363,32.1229766 397.964768,34.7918821 L384.677702,47.1737859 L409,81.3310945 L409,84 L390.892709,84 L370,53.6849239 L386.60745,38.6341145 Z" id="Path" fill="#0D101A"></path>
        <path d="M352.429361,10.9437643 L346.214266,7.72582426 L346.214266,5.04351551 L366.785181,0 L369.572021,0 L369.572021,75.7399285 C369.572021,79.2803546 371.286149,79.8159859 376,80.1384719 L376,84 L346,84 L346,80.1384719 C350.713851,79.8159859 352.429361,79.2803546 352.429361,75.7399285 L352.429361,10.9437643 Z" id="Path" fill="#0D101A"></path>
        <path d="M184.491389,42.9244329 L178.370595,59.9188124 L165.017358,22.6836439 C164.391552,20.6690086 163.767091,18.7583898 163.767091,17.274786 C163.767091,14.6209967 165.434563,13.3495319 170.337389,13.0306392 L170.337389,9 L138,9 L138,13.0306392 C140.921778,13.5603022 143.111428,14.4102265 144.050812,16.9558934 L168.773545,84 L174.927985,84 L187,50.4478366 L184.491389,42.9244329 Z" id="Fill-12" fill="#0D101A"></path>
        <path d="M220.547827,9 L220.547827,13.0306392 C226.555045,13.3495319 228.484107,14.8345043 228.484107,17.9112028 C228.484107,19.3961751 227.949948,21.3054253 227.305082,23.3214292 L214.863043,59.3891494 L203.064487,23.5335681 C202.314449,21.0932864 201.777522,19.1840362 201.777522,17.5923101 C201.777522,14.5156116 203.814524,13.137393 209.821741,13.0306392 L209.821741,9 L177,9 L177,13.0306392 C179.896362,13.5616708 181.718869,14.3034727 182.578229,16.9558934 L205.638415,84 L211.966682,84 L235.779673,16.9558934 C236.744204,14.3034727 239.103638,13.5616708 242,13.0306392 L242,9 L220.547827,9 Z" id="Fill-14" fill="#0D101A"></path>
        <path d="M65,31.4357678 C65,18.9353084 55.4386489,9 34.9173668,9 L0,9 L0,13.0593068 C7.30615857,13.9138977 8.16692967,14.6623539 8.16692967,20.4322208 L8.16692967,72.5677792 C8.16692967,78.3376461 7.30615857,79.084724 0,79.9393149 L0,84 L39.2156779,84 L39.2156779,79.8331802 C29.4380944,79.2997501 26.4302469,77.9103507 26.4302469,72.034349 L26.4302469,13.5941153 L30.0840193,13.5941153 C40.7196017,13.5941153 46.7352966,20.7520032 46.7352966,31.5432809 C46.7352966,41.9568845 42.0059069,48.5854775 32.3891116,49.4841763 L32.4029727,54.6199919 L34.3809443,54.6199919 C55.0089564,54.6199919 65,45.7515438 65,31.4357678" id="Fill-16" fill="#DA0014"></path>
    </g>
</svg>